<mxfile host="app.diagrams.net" modified="2023-05-08T03:23:52.838Z" agent="Mozilla/5.0 (Windows NT 10.0; Win64; x64) AppleWebKit/537.36 (KHTML, like Gecko) Chrome/112.0.0.0 Safari/537.36" version="21.2.9" etag="1RgsFl1oLgWxxyrEipkP" type="github">
  <diagram name="Page-1" id="4wXiYpoZzTC1FN60xsnA">
    <mxGraphModel>
      <root>
        <mxCell id="0" />
        <mxCell id="1" parent="0" />
      </root>
    </mxGraphModel>
  </diagram>
</mxfile>
